<svg width="500" height="500" viewBox="0 0 500 500" fill="none" xmlns="http://www.w3.org/2000/svg">
<circle cx="250" cy="250" r="250" fill="#9A3737"/>
<rect width="321.271" height="15.2704" rx="7.6352" transform="matrix(0.98657 -0.163341 0.199294 0.97994 90 154.477)" fill="white"/>
<rect width="185.064" height="15.2558" rx="7.6279" transform="matrix(0.990078 -0.140517 0.171745 0.985141 157.26 289.353)" fill="white"/>
<path d="M240.109 136.329C244.675 136.428 248.315 140.145 248.315 144.712L248.315 290.198C248.315 291.171 248.196 292.141 247.962 293.087L217.987 414.088C216.985 418.133 213.347 420.982 209.184 420.982V420.982C203.287 420.982 199.002 415.42 200.499 409.711L231.064 293.163C231.325 292.167 231.458 291.143 231.458 290.114L231.458 144.795C231.458 140.054 235.368 136.227 240.109 136.329V136.329Z" fill="white"/>
</svg>
