<!DOCTYPE svg PUBLIC "-//W3C//DTD SVG 1.1//EN" "http://www.w3.org/Graphics/SVG/1.1/DTD/svg11.dtd">
<!-- Uploaded to: SVG Repo, www.svgrepo.com, Transformed by: SVG Repo Mixer Tools -->
<svg width="150px" height="150px" viewBox="0 0 24 24" fill="none" xmlns="http://www.w3.org/2000/svg" transform="matrix(-1, 0, 0, 1, 0, 0)rotate(45)">
<g id="SVGRepo_bgCarrier" stroke-width="0"/>
<g id="SVGRepo_tracerCarrier" stroke-linecap="round" stroke-linejoin="round" stroke="#CCCCCC" stroke-width="0.624"/>
<g id="SVGRepo_iconCarrier"> <path d="M14.7245 11.2754L16 12.4999L10.0129 17.8218C8.05054 19.5661 5.60528 20.6743 3 20.9999L3.79443 19.5435C4.6198 18.0303 5.03249 17.2737 5.50651 16.5582C5.92771 15.9224 6.38492 15.3113 6.87592 14.7278C7.42848 14.071 8.0378 13.4615 9.25644 12.2426L12 9.49822M11.5 8.99787L17.4497 3.04989C18.0698 2.42996 19.0281 2.3017 19.7894 2.73674C20.9027 3.37291 21.1064 4.89355 20.1997 5.80024L19.8415 6.15847C19.6228 6.3771 19.3263 6.49992 19.0171 6.49992H18L16 8.49992V8.67444C16 9.16362 16 9.40821 15.9447 9.63839C15.8957 9.84246 15.8149 10.0375 15.7053 10.2165C15.5816 10.4183 15.4086 10.5913 15.0627 10.9372L14.2501 11.7498L11.5 8.99787Z" stroke="#9A3737" stroke-width="0.4800000000000001" stroke-linecap="round" stroke-linejoin="round"/> </g>
</svg>